<?xml version="1.0" encoding="UTF-8" standalone="no"?>
<svg
   xmlns:dc="http://purl.org/dc/elements/1.1/"
   xmlns:cc="http://creativecommons.org/ns#"
   xmlns:rdf="http://www.w3.org/1999/02/22-rdf-syntax-ns#"
   xmlns:svg="http://www.w3.org/2000/svg"
   xmlns="http://www.w3.org/2000/svg"
   xmlns:sodipodi="http://sodipodi.sourceforge.net/DTD/sodipodi-0.dtd"
   xmlns:inkscape="http://www.inkscape.org/namespaces/inkscape"
   width="30px"
   height="30px"
   version="1.1"
   viewBox="0 0 144.47955 112.71478"
   id="svg849"
   sodipodi:docname="astrologo.svg"
   inkscape:version="1.0.1 (c497b03c, 2020-09-10)">
  <metadata
     id="metadata855">
    <rdf:RDF>
      <cc:Work
         rdf:about="">
        <dc:format>image/svg+xml</dc:format>
        <dc:type
           rdf:resource="http://purl.org/dc/dcmitype/StillImage" />
      </cc:Work>
    </rdf:RDF>
  </metadata>
  <defs
     id="defs853" />
  <sodipodi:namedview
     pagecolor="#ffffff"
     bordercolor="#666666"
     borderopacity="1"
     objecttolerance="10"
     gridtolerance="10"
     guidetolerance="10"
     inkscape:pageopacity="0"
     inkscape:pageshadow="2"
     inkscape:window-width="1248"
     inkscape:window-height="671"
     id="namedview851"
     showgrid="false"
     inkscape:zoom="10.343504"
     inkscape:cx="8.450746"
     inkscape:cy="15.444973"
     inkscape:window-x="0"
     inkscape:window-y="23"
     inkscape:window-maximized="0"
     inkscape:current-layer="g847"
     inkscape:document-rotation="0" />
  <g
     class="canfill"
     transform="translate(-.52916 -.83154)"
     id="g847"
     style="stroke-width:2.36770333;stroke-miterlimit:4;stroke-dasharray:none;fill:#ececec;fill-opacity:1">
    <!-- <rect
       x="3.3083999"
       y="3.61078"
       width="102.3915"
       height="102.39152"
       ry="48.375473"
       style="fill:none;stroke:#fff;stroke-width:5.55848;stroke-linejoin:round;stroke-miterlimit:4;stroke-dasharray:none"
       id="rect833" />   -->
    <path
       d="m 64.988236,69.104121 -5.51819,-8.974384 -10.757645,-0.109344 7.102766,-8.520993 -2.654202,-10.32332 9.907875,3.708155 9.117107,-6.270824 -0.979345,10.81276 8.288979,6.447625 -10.513107,2.974462 z"
       style="fill:#ececec;fill-opacity:1;stroke:#ececec;stroke-width:3.53807;stroke-miterlimit:4;stroke-dasharray:none"
       id="path833" />
    <path
       d="m 73.287263,101.65273 -7.056127,-2.765519 -6.282588,4.910059 0.454582,-8.333346 -5.975735,-4.889263 7.336987,-2.384813 2.589431,-7.931869 4.079927,6.859598 7.575972,-0.01291 -4.815422,6.624322 z"
       style="fill:#ececec;fill-opacity:1;stroke:#ececec;stroke-width:3.53807;stroke-miterlimit:4;stroke-dasharray:none"
       id="path835" />
    <path
       d="m 103.43717,110.69689 -4.079017,-8.53985 -9.482967,-0.96684 7.018106,-7.112153 -1.432811,-9.525246 8.416219,4.144254 8.59731,-4.920097 -1.81646,9.673457 6.7463,6.48457 -9.53899,1.834245 z"
       style="fill:#ececec;fill-opacity:1;stroke:#ececec;stroke-width:3.53807;stroke-miterlimit:4;stroke-dasharray:none"
       id="path837" />
    <path
       d="m 122.09178,54.041812 -7.79195,6.328538 0.9156,10.416632 -8.56471,-5.928526 -9.312151,3.707512 2.498628,-9.992637 -6.670651,-8.125419 10.108974,-0.247234 5.18933,-8.729183 3.74901,9.839721 z"
       style="fill:#ececec;fill-opacity:1;stroke:#ececec;stroke-width:3.53807;stroke-miterlimit:4;stroke-dasharray:none"
       id="path839" />
    <path
       d="m 140.21075,72.782017 -4.87955,0.749814 -2.44446,4.492597 -1.87935,-4.464303 -4.78888,-0.686514 3.71798,-3.508886 -0.51523,-4.916933 4.1772,2.295721 4.47045,-2.352302 -1.13636,4.927747 z"
       style="fill:#ececec;fill-opacity:1;stroke:#ececec;stroke-width:3.53807;stroke-miterlimit:4;stroke-dasharray:none"
       id="path841" />
    <path
       d="m 131.97659,94.887784 -3.05489,-0.371728 -1.94868,2.696111 -0.69363,-3.470831 -2.85366,-1.360655 2.62615,-1.773335 0.1851,-3.536934 2.31673,2.374859 2.96802,-0.825359 -1.19443,3.241054 z"
       style="fill:#ececec;fill-opacity:1;stroke:#ececec;stroke-width:3.53807;stroke-miterlimit:4;stroke-dasharray:none"
       id="path843" />
    <path
       d="M 26.604315,43.400335 18.74257,33.345686 5.4950984,34.281698 13.214605,23.513284 8.7150166,11.581762 21.347767,14.981127 31.814531,6.6712503 l 0.08792,12.8693867 10.968263,6.795578 -12.578257,4.554282 z"
       style="fill:#ececec;fill-opacity:1;stroke:#ececec;stroke-width:3.53807;stroke-miterlimit:4;stroke-dasharray:none"
       id="path845" />
  </g>
</svg>
