<svg width="30px" height="30px" version="1.1" viewBox="0 0 107.95 107.95" xmlns="http://www.w3.org/2000/svg">
 <g transform="translate(-.52916 -.83154)">
  <rect x="1.5875" y="1.8899" width="105.83" height="105.83" ry="20" style="fill:none;stroke-linejoin:round;stroke-width:3;stroke:rgb(236,236,236)"/>
  <path transform="matrix(1.4545 .54016 -.62455 1.4785 3.0563 -13.644)" d="m46.261 33.511-3.7055-2.6896-4.3164 1.5277 1.4129-4.3553-2.7868-3.633 4.5787-0.0021 2.594-3.773 1.4169 4.354 4.39 1.3011-3.703 2.693z" style="fill:rgba(10, 10, 10, 0.98);stroke-miterlimit:2.5;stroke-width:1.3419;stroke:rgb(236,236,236)"/>
  <path transform="matrix(1.2955 -.092484 .038294 1.4091 -8.3749 20.902)" d="m47.528 46.885-3.6161-1.5447-3.3225 2.1031 0.35167-3.9164-3.0269-2.51 3.8334-0.87579 1.4518-3.6544 2.0175 3.3752 3.9241 0.25145-2.5865 2.9618z" style="fill:rgba(10, 10, 10, 0.98);stroke-miterlimit:2.5;stroke-width:1.5651;stroke:rgb(236,236,236)"/>
  <path transform="matrix(1.5112 .56121 -.65834 1.5585 10.232 -17.804)" d="m62.906 45.619-2.9431-2.5903-3.8023 0.95595 1.5541-3.5995-2.0841-3.3208 3.9035 0.3657 2.5142-3.0083 0.85845 3.8255 3.638 1.4616-3.373 1.9986z" style="fill:rgba(10, 10, 10, 0.98);stroke-miterlimit:2.5;stroke-width:1.2823;stroke:rgb(236,236,236)"/>
  <path transform="matrix(.52525 -1.4937 1.4872 .59788 7.5603 130.01)" d="m65.35 30.876-3.708-2.2128-3.9249 1.8001 0.95865-4.2103-2.9249-3.1766 4.3005-0.38933 2.1173-3.7633 1.6992 3.9697 4.2334 0.85072-3.2503 2.8427z" style="fill:rgba(10, 10, 10, 0.98);stroke-miterlimit:2.5;stroke-width:1.3293;stroke:rgb(236,236,236)"/>
  <path transform="matrix(.62946 .23376 -.27647 .65451 53.993 27.648)" d="m83.863 24.581-4.2152 2.2686-0.52084 4.7584-3.4601-3.3078-4.6865 0.97509 2.0767-4.3129-2.3756-4.1558 4.7436 0.6423 3.2183-3.5435 0.85498 4.7099z" style="fill:rgba(10, 10, 10, 0.98);stroke-miterlimit:2.5;stroke-width:3.066;stroke:rgb(236,236,236)"/>
  <path transform="matrix(.82971 -.21568 .2039 .9556 23.816 57.541)" d="m75.656 38.554-2.2849-0.77483-1.9336 1.443 0.03084-2.4125-1.9699-1.3931 2.3039-0.71617 0.71617-2.3039 1.3931 1.9699 2.4125-0.03084-1.443 1.9336z" style="fill:rgba(10, 10, 10, 0.98);stroke-miterlimit:2.5;stroke-width:2.3138;stroke:rgb(236,236,236)"/>
  <path transform="matrix(1.9025 .69512 -.79946 1.862 -76.036 -59.149)" d="m65.35 30.876-3.708-2.2128-3.9249 1.8001 0.95865-4.2103-2.9249-3.1766 4.3005-0.38933 2.1173-3.7633 1.6992 3.9697 4.2334 0.85072-3.2503 2.8427z" style="fill:rgba(10, 10, 10, 0.98);stroke-miterlimit:2.5;stroke-width:1.0456;stroke:rgb(236,236,236)"/>
 </g>
</svg>
