<?xml version="1.0" encoding="UTF-8" standalone="no"?>
<svg
   xmlns:dc="http://purl.org/dc/elements/1.1/"
   xmlns:cc="http://creativecommons.org/ns#"
   xmlns:rdf="http://www.w3.org/1999/02/22-rdf-syntax-ns#"
   xmlns:svg="http://www.w3.org/2000/svg"
   xmlns="http://www.w3.org/2000/svg"
   xmlns:sodipodi="http://sodipodi.sourceforge.net/DTD/sodipodi-0.dtd"
   xmlns:inkscape="http://www.inkscape.org/namespaces/inkscape"
   width="30px"
   height="30px"
   version="1.1"
   viewBox="0 0 107.95 107.95"
   id="svg851"
   sodipodi:docname="techlogo.svg"
   inkscape:version="1.0.1 (c497b03c, 2020-09-10)">
  <metadata
     id="metadata857">
    <rdf:RDF>
      <cc:Work
         rdf:about="">
        <dc:format>image/svg+xml</dc:format>
        <dc:type
           rdf:resource="http://purl.org/dc/dcmitype/StillImage" />
        <dc:title></dc:title>
      </cc:Work>
    </rdf:RDF>
  </metadata>
  <defs
     id="defs855" />
  <sodipodi:namedview
     pagecolor="#ffffff"
     bordercolor="#666666"
     borderopacity="1"
     objecttolerance="10"
     gridtolerance="10"
     guidetolerance="10"
     inkscape:pageopacity="0"
     inkscape:pageshadow="2"
     inkscape:window-width="1440"
     inkscape:window-height="900"
     id="namedview853"
     showgrid="true"
     inkscape:zoom="17.657143"
     inkscape:cx="21.106165"
     inkscape:cy="15.625661"
     inkscape:window-x="0"
     inkscape:window-y="0"
     inkscape:window-maximized="0"
     inkscape:current-layer="g849">
    <inkscape:grid
       type="xygrid"
       id="grid881" />
  </sodipodi:namedview>
  <g
     transform="translate(-.52916 -.83154)"
     id="g849">
    <rect
       x="1.5875"
       y="1.8899"
       width="105.83"
       height="105.83"
       ry="20"
       style="fill:none;stroke-linejoin:round;stroke-width:3;stroke:rgb(236,236,236)"
       id="rect833" />
    <g
       aria-label="{}"
       transform="matrix(0.85716084,0,0,0.78335756,-0.48075318,19.475681)"
       id="text939"
       style="font-style:normal;font-variant:normal;font-weight:normal;font-stretch:normal;font-size:85.7491px;line-height:1.25;font-family:monospace;-inkscape-font-specification:'monospace, Normal';font-variant-ligatures:normal;font-variant-caps:normal;font-variant-numeric:normal;font-variant-east-asian:normal;fill:none;fill-opacity:1;stroke:#ececec;stroke-width:2.28237;stroke-miterlimit:2.5;stroke-dasharray:none;stroke-opacity:1">
      <path
         d="m 50.698684,83.484965 h -3.307705 q -6.029233,0 -8.708893,-3.265835 -2.637789,-3.223965 -2.637789,-12.016598 v -4.019489 q 0,-7.829629 -2.051614,-10.886116 -2.051615,-3.098356 -6.615409,-3.098356 v -6.824757 q 4.563794,0 6.615409,-3.056487 2.051614,-3.098356 2.051614,-10.927986 v -4.061358 q 0,-8.750763 2.637789,-11.974728 2.67966,-3.265835 8.708893,-3.265835 h 3.307705 v 5.484928 h -1.25609 q -3.89388,0 -5.443058,1.674787 -1.507309,1.674787 -1.507309,7.997108 v 2.67966 q 0,8.667023 -2.009744,12.770251 -2.009745,4.103229 -6.824758,6.071103 4.815013,2.009745 6.824758,6.112973 2.009744,4.103229 2.009744,12.770252 v 2.679659 q 0,6.322322 1.507309,7.997109 1.549178,1.674787 5.443058,1.674787 h 1.25609 z"
         style="font-style:normal;font-variant:normal;font-weight:normal;font-stretch:normal;font-size:85.7491px;font-family:monospace;-inkscape-font-specification:'monospace, Normal';font-variant-ligatures:normal;font-variant-caps:normal;font-variant-numeric:normal;font-variant-east-asian:normal;fill:none;stroke:#ececec;stroke-width:3;stroke-miterlimit:2.5;stroke-dasharray:none;stroke-opacity:1"
         id="path948" />
      <path
         d="m 100.06303,50.198571 q -4.521923,0 -6.615407,3.098356 -2.051614,3.056487 -2.051614,10.886116 v 4.019489 q 0,8.792633 -2.63779,12.016598 -2.63779,3.265835 -8.667023,3.265835 h -3.349574 v -5.484928 h 1.29796 q 3.89388,0 5.401188,-1.674787 1.549178,-1.674787 1.549178,-7.997109 v -2.679659 q 0,-8.667023 2.009745,-12.770252 2.009744,-4.103228 6.824757,-6.112973 -4.815013,-1.967874 -6.824757,-6.071103 -2.009745,-4.103228 -2.009745,-12.770251 v -2.67966 q 0,-6.322321 -1.549178,-7.997108 -1.507308,-1.674787 -5.401188,-1.674787 h -1.29796 V 10.08742 h 3.349574 q 6.029233,0 8.667023,3.265835 2.63779,3.223965 2.63779,11.974728 v 4.061358 q 0,7.075976 1.842266,10.551159 1.842265,3.433314 6.824755,3.433314 z"
         style="font-style:normal;font-variant:normal;font-weight:normal;font-stretch:normal;font-size:85.7491px;font-family:monospace;-inkscape-font-specification:'monospace, Normal';font-variant-ligatures:normal;font-variant-caps:normal;font-variant-numeric:normal;font-variant-east-asian:normal;fill:none;stroke:#ececec;stroke-width:3;stroke-miterlimit:2.5;stroke-dasharray:none;stroke-opacity:1"
         id="path950" />
    </g>
  </g>
</svg>
